<svg viewBox="1475 57 1474 445" width="1474" height="445" preserveAspectRatio="xMaxYMax meet" xmlns="http://www.w3.org/2000/svg">
	<circle fill="gray" fill-opacity="0.4" stroke="none" stroke-width="0" r="95" cy="155" cx="1758" />
	<path stroke="white" stroke-width="8" fill="none" fill-rule="evenodd" d="m1778.6875,67.96875c-3.4267,-0.05337 -6.4182,1.85793 -8.3437,6.84375c-3.0673,7.94197 -10.8737,10.68466 -12.6563,16c-2.2121,6.59614 5.2235,24.58986 -5.875,31.0625c-9.1625,5.34346 -11.7672,17.96642 -11.8125,26.34375c-0.0512,9.46026 20.4734,18.44277 30.5,13.28125c7.2829,-3.74907 25.911,-15.37381 25.0938,0.4375c-0.4709,9.11046 -25.3473,9.37147 -17.2188,16.46875c5.1894,4.53098 3.2142,4.47286 3.3125,9.59375c0.1351,7.04299 21.3927,9.01377 31.8125,13.5c9.4494,4.06844 16.4567,7.42559 27.75,5.5c12.0771,-2.05922 7.4986,13.89886 0.25,20.5c-6.8378,6.22701 6.1274,30.80574 -11.9062,30.25c-8.226,-0.25349 -13.4653,-2.12782 -20.5938,5.90625c-5.1165,5.76653 -19.52,3.8627 -28.5937,7.78125c-11.303,4.88123 -18.7641,-3.37046 -27.4063,-8.4375c-12.1613,-7.13037 -19.2058,12.59909 -27.75,20.09375c-6.0743,5.32817 -6.4373,14.36558 -15.7812,18.46875c-10.169,4.46548 -17.787,12.65198 -30.4688,12.4375c-10.3059,-0.1743 -21.1576,6.59983 -29.5312,12.78125c-8.9754,6.62569 -20.6674,14.91965 -30.9375,15.03125c-13.6639,0.14848 -16.8851,12.54565 -27.8125,16c-9.3843,2.96656 -21.0165,5.81116 -27.9688,6.375c-5.9365,0.48146 -16.9296,-12.86412 -25.8125,-14.21875c-10.669,-1.62701 -26.5509,3.89151 -29.625,14.21875c-3.6801,12.36306 -12.882,22.70483 -26.2187,16.65625c-7.265,-3.29489 -22.4905,-3.00581 -15.5938,8.15625c5.6391,9.12673 -18.3724,11.08074 -7.5312,21.6875c8.2213,8.04378 12.3221,23.90894 -1.4688,28.8125c-6.6872,2.37774 -20.7075,-13.10766 -19,0.5c1.8012,14.35388 -11.3277,15.13792 -22.25,15.5c-12.5157,0.41489 -21.7222,-6.42544 -33.1562,-8.84375c-13.7379,-2.90554 -27.2115,7.34946 -38.5938,4.34375c-7.6435,-2.01841 -16.1266,-7.91181 -17.5,3.59375c-1.5345,12.85571 -23.4996,11.22453 -28.5,3.90625c-6.6972,-9.80147 -16.9546,-10.55233 -26.8125,-10.75c-9.2348,-0.18518 -8.9167,13.23044 -14.1875,17.75c-7.2241,6.19437 -25.1775,8.40002 -36.25,1.90625c-12.9726,-7.60824 -21.4896,6.98075 -32.75,7.59375c-9.9579,0.54209 -6.4911,7.44079 -2.5937,13.40625c4.4044,6.74176 16.2772,24.3598 3.3125,31.6875c-8.0706,4.5615 -26.6939,16.26539 -16.5,24.15625c7.8162,6.05038 2.4806,14.46744 -7.1875,15.75c-10.1591,1.34765 -12.0903,15.68416 -22.0313,22c-6.1619,3.91487 -8.9043,23.41212 -19.7187,13c-7.4495,-7.17238 -17.9619,-9.39881 -26.2813,-13.90625c-9.7402,-5.27723 -12.1406,-16.43581 -16.4375,-25.09375c-3.3827,-6.81592 -18.812,-17.66397 -20.5,-11.8125c-2.8953,10.03663 8.2952,21.2832 -1.5625,31.8125c-6.976,7.45129 -17.9058,13.25682 -25.5,16.5c-8.3078,3.54792 -10.6706,9.16202 -9,17c1.4636,6.86671 1.7202,14.80569 -9.25,15.25c-9.9926,0.40472 -21.35711,4.64051 -23.375,-8.84375c-1.64096,-10.96551 -18.39414,-14.0945 -21.5,-10.875c-4.10742,4.25768 -13.10167,13.91405 -13.375,26.46875c-0.15261,7.0094 -13.58562,8.94491 -12.65625,19.46875c1.11637,12.64112 -5.24769,24.75106 -9.84375,35.65625c-2.88874,6.85413 -9.08152,8.68289 -10.4375,17.75c-1.96792,13.15884 -21.64272,0.58402 -29.5625,-0.875c-7.24935,-1.33552 -11.58152,-0.63702 -17,-8.5c-6.91282,-10.03149 -17.79734,10.11724 -24.59375,16.0625c-5.20147,4.55008 -17.87808,1.09066 -26.5625,2.25c-11.83432,1.57984 -18.03825,-19.25846 -28.4375,-8.84375c-8.61031,8.62309 -1.22596,22.82328 -5.09375,30.53125c-5.29633,10.55489 -3.52935,21.54506 -3.125,32.5c0.56002,15.17299 -19.33262,12.43966 -23.6875,23c-3.72337,9.02899 -8.35249,20.97556 -19.5,21c-11.14751,0.02444 -8.45442,2.1046 -19,0c-10.54558,-2.1046 -19.55533,-7.17172 -28,-13.5c-9.55162,-7.1578 -20.79993,-10.98008 -31,-17c-10.7355,-6.33593 -19.83195,-20.50471 -32.09375,-20c-9.63814,0.39669 -9.00098,19.02726 -11.40625,26c-1.69441,4.91201 -5.38117,-20.18642 -16.5,-18c-11.55813,2.2728 -22.30056,9.34165 -33.4375,13.96875c-10.44047,4.3377 -11.29154,16.96517 -22.03125,20.5c-10.28841,3.3863 -5.89114,25.26167 -13.53125,20.53125c-7.72259,-4.78149 -15.60261,-23.82523 -23.53125,-20.59375c-10.55338,4.30126 -21.58338,7.47834 -31.53125,-1.125c-9.4285,-8.15414 -15.07835,16.3395 -27.4375,10.71875c-10.72467,-4.87742 -16.36543,7.11778 -28.5,7c-11.48704,-0.11149 -27.83798,-5.06349 -35.59375,7.09375c-6.53645,10.24591 -19.36778,17.87263 -19.90625,30.90625c-0.34135,8.26248 8.54238,30.58991 -6.4375,25.53125c-11.01331,-3.71915 -27.75235,-7.92613 -30,6.59375c-1.86461,12.04541 -11.63982,19.41011 -24.03125,16.53125c-14.37054,-3.33867 -10.64681,16.09658 -8.59375,25.5625c3.05971,14.10718 -17.98177,13.26481 -25.9375,20.28125c-8.3643,7.37677 -15.08132,19.48329 -15.5625,29.28125c-0.41449,8.43996 11.60424,28.50285 -4.78125,20.93755c-12.73782,-5.88122 -12.28477,15.6343 -9.65625,22.7812c2.74269,7.4572 -14.72739,14.9788 -3,22.5c11.72269,7.5181 2.8266,22.0678 -7.40625,27.1563c-7.2252,3.5928 -23.48175,10.1674 -23,-0.4063c0.52553,-11.5346 -12.89612,-19.0179 -9.59375,-24.25c2.18781,-3.4662 15.37996,-3.7692 7.5625,-9.4375c-11.27593,-8.1759 10.32149,-20.0976 -4.625,-28.125c-10.03624,-5.3902 -25.36082,-10.657 -28.09375,-21.75c-3.29031,-13.35549 21.49669,5.82985 17.84375,-10.53125c-2.95445,-13.23266 -16.70264,-18.11366 -29.3125,-17.5625c-12.78354,0.55878 -22.85536,-4.23536 -18.875,-18.65625c3.30579,-11.97691 -1.2125,-25.55261 -9.21875,-35.875c-7.44836,-9.60313 -23.50307,-7.88097 -33.15625,-4.3125c-10.97083,4.05555 -21.71194,-4.54256 -30.125,-2.75c-10.54929,2.24773 8.15319,8.73484 13.25,12.75c8.65742,6.82015 -8.38001,16.55967 1.75,24.75c6.80919,5.50538 15.12924,16.74525 2,21.5c-7.68242,2.78218 -21.42186,5.77982 -21.75,16.3125c-6.10707,14.63245 -3.81231,5.90229 7.25,18.28125c5.51317,4.12113 17.46555,15.59645 26.84375,16.18755c12.37119,0.7796 12.697,15.2159 19.375,22.7812c7.03015,7.9643 12.33805,18.1772 19.625,26.2813c5.70997,6.3501 6.77695,16.7329 9.375,24.75c2.80153,8.645 -10.5137,13.2917 -14.125,21.375c-5.12056,11.4615 -2.81653,23.2511 -3.03125,34.3125c-0.20802,10.717 8.19159,21.2148 20.9375,23.4375c5.77647,1.0073 7.73502,11.719 16.5,13.7812c9.0349,2.1257 24.9403,14.2302 23.5,19.375c-0.9341,3.3366 -19.57032,17.6981 -8.34375,22.8438c11.29984,5.1791 27.8862,-4.2364 36.59375,5.5937c7.21216,8.1419 6.8926,23.7925 20.34375,25.9688c13.49642,2.1836 15.52564,16.5721 26.5625,22.8125c9.7662,5.5219 19.14954,10.5794 29.65625,13.5c8.00982,2.2265 19.44039,4.9521 11.21875,15.125c-6.98889,8.6475 9.46982,9.0817 14.3125,3.75c7.50245,-8.26 13.72497,5.3213 19.4375,8.4062c9.00864,4.8647 21.99953,13.4717 11.3125,24.2813c-7.57336,7.6602 -25.45952,19.6663 -8.4375,29.8437c9.57937,5.7275 18.86488,15.0447 31.375,14c12.23889,-1.022 24.59109,8.6762 19.96875,21.875c-3.53219,10.086 -8.12244,22.3967 -17.71875,28.5938c-11.59763,7.4893 -2.80964,28.3582 -16.6875,30.6875c-13.61977,2.2858 -2.91119,25.5837 -13.84375,21.5312c-11.31254,-4.1933 -10.6447,13.0237 -11.15625,20.0938c-0.62751,8.6729 -8.22264,22.41 -9.09375,35.0937c-0.80253,11.685 -17.76924,15.1927 -25.75,23.125c-7.56716,7.5212 -26.65077,7.8366 -26.21875,17.4688c0.47337,10.554 -6.29147,23.5258 7.625,30.1875c9.79867,4.6904 9.41763,18.4706 15.5625,26.8125c5.72188,7.7676 12.44298,13.3089 22.28125,15.0312c11.87587,2.0789 15.34873,17.991 28.625,17.125c8.37419,-0.5464 12.9301,-0.2806 16.6875,9.5938c4.58794,12.057 -0.98574,20.4838 -2.65625,31.5c-1.37116,9.0421 -2.03502,20.8751 1.46875,25.75c4.34288,6.0424 -1.26361,22.4909 10.34375,14.4062c14.07596,-9.804 20.36281,6.4239 17.96875,17.4063c-2.70335,12.4011 17.37296,20.7852 8.53125,31.7812c-8.19938,10.1971 1.56817,18.8657 3.28125,28.3125c2.27078,12.5223 7.26769,27.1321 21.75,31.625c9.38687,2.9121 16.48292,-5.66 22.5,-5c8.55339,0.9381 9.39984,24.4294 4.125,32.8125c-6.11325,9.7156 8.42227,21.7443 -0.5,27.6563c-8.29812,5.4984 -5.9649,10.4692 0.875,16.0312c8.12944,6.6107 7.81856,22.9916 8.59375,34.875c0.91875,14.0838 18.16775,18.4744 29.6875,19.5625c12.43865,1.1749 15.23996,16.1581 26.1875,21.0625c9.29857,4.1656 19.33871,11.1583 20.625,22.2813c1.21077,10.4696 -7.5196,23.3073 6.34375,27.0625c15.00112,4.0632 -0.45258,20.5229 12.53125,25.6562c12.08564,4.778 24.25729,8.1361 37.53125,8c11.3486,-0.1163 23.57125,2.4919 32.0625,10.4375c10.03194,9.3874 5.32063,-6.4318 5.4375,-12.9375c0.22677,-12.623 21.10408,-0.1068 30,1.5c11.5567,2.0875 23.96878,-1.0576 32.875,9.0313c7.16667,8.1184 16.47396,12.2269 23.125,21.4687c5.24484,7.2879 10.38345,17.9159 22.65625,16.75c10.29739,-0.9781 8.13109,16.7337 5.8125,21.8438c-3.79506,8.3641 -3.51069,28.5323 7.15625,27.1562c13.95509,-1.8004 11.06332,11.8818 17.46875,18.5938c5.78011,6.0566 16.73916,0.7806 19.28125,11.5312c2.12766,8.998 -1.20619,17.6951 12.125,20.125c10.33247,1.8834 1.11174,18.9817 4.5,24c5.30297,7.8541 20.91143,13.2216 28,23.5c5.195,7.5328 14.96978,10.5404 20,16.5c7.38944,8.7547 -5.84486,23.6504 -0.625,34.625c5.78178,12.1561 20.10073,16.1477 29.75,25.25c9.36076,8.8303 22.09473,10.2643 34.6875,7.2188c9.7984,-2.3698 23.94258,-7.1388 30.71875,4.5625c4.7018,8.1192 15.82749,11.1058 22.6875,17.4062c6.80073,6.2458 15.39083,11.2248 18.65625,20.875c3.8007,11.2322 21.8335,13.9693 21.125,24.5625c-1.0593,15.8383 21.5499,5.8276 15.1875,21.9375c-3.394,8.5938 8.8837,19.5294 2.9688,30.75c-3.7232,7.063 9.8189,14.8373 1.125,24.1563c-10.0668,10.7904 6.5491,19.1221 12.75,25.3125c7.4732,7.4606 16.4097,14.7529 27.0937,18.3125c7.2473,2.4145 13.2341,9.0403 18.875,14.5312c5.6888,5.5376 21.2548,21.1733 19,4c-1.5157,-11.5434 -1.6105,-22.651 12.5,-26c9.0097,-2.1383 13.4297,-1.1651 21,4c7.6702,5.2333 19.8603,-2.0483 28.9688,-2.75c13.0613,-1.0063 4.9652,19.171 13.5,27.5c8.7542,8.5432 27.0651,-13.2088 22.125,1.0938c-4.5962,13.3065 5.111,18.8514 7.3125,30.0625c2.0371,10.3738 4.1384,25.1605 13.2187,30.625c10.059,6.0536 7.9284,18.527 19.2813,22.625c10.9927,3.9679 24.8026,4.066 35.0937,-1.2813c4.5623,-2.3705 10.0691,-9.9059 13.6875,-1.0937c4.3471,10.5868 7.8883,21.252 12.0625,31.75c3.9832,10.0177 2.8145,26.6382 16.25,27.4687c11.9202,0.7368 11.468,9.3938 12.9375,17.75c1.8117,10.303 15.1942,16.383 13.8125,27.2813c-0.7256,5.7231 -8.4092,10.0107 -9.2812,15.0937c-1.7148,9.9954 18.8639,11.6113 28.7812,11.875c12.0232,0.3196 24.9129,0.0071 33.9063,9.3125c7.4833,7.7428 18.531,11.5423 24.6875,21.25c6.2319,9.8268 11.1474,24.5342 20.4375,27.875c10.6918,3.8448 12.3538,11.9624 25.6562,13.9375c10.2432,1.521 27.9049,-1.706 30.1875,13.625c1.0815,7.2642 10.6839,8.1808 11.8125,12.9688c2.5151,10.6702 12.877,14.8553 22.7813,17.5c9.0773,2.4238 2.583,13.0296 1.3125,20.1875c-2.3903,13.4659 -25.944,-4.9663 -25.2813,12.4062c0.2707,7.094 -13.4604,6.0733 -6.5,17.4375c7.4345,12.1381 31.826,0.182 25.25,13.5c-4.8713,9.8656 0.0611,12.0891 4.0625,19.2813c5.648,10.152 8.6782,-9.9027 9.9375,2.3437c1.6282,15.8356 25.4256,-3.5818 25.0625,11c-0.3261,13.0991 17.698,4.15 24.9375,0.375c9.1273,-4.7594 23.0214,5.135 33.2188,6.7188c10.9873,1.7065 23.1305,0.5428 34.0625,3.5625c10.2945,2.8435 16.8241,15.6911 29.2812,9.5625c8.3053,-4.0861 14.7793,3.5205 22.25,8.5c9.7584,6.5043 23.0246,12.1409 32.6875,20.1562c9.6627,8.0151 17.3099,1.6357 24.4063,-4.6562c4.7907,-4.2477 2.9265,-21.9053 11.7187,-13.6875c9.9832,9.3308 22.7094,-0.7858 21.375,-10.1563c-0.9187,-6.451 -10.2678,-13.8966 2.25,-14.5c11.4643,-0.5527 21.3235,7.6584 29.0625,7.0625c5.0785,-0.391 6.9999,-11.1576 10.2188,-17.6562c4.7859,-9.6624 9.7101,-22.7259 7.9687,-34.7813c-1.4612,-10.1151 3.4623,-22.8097 12.375,-14.7187c8.7057,7.9031 20.6327,12.0837 22.3438,25.8437c0.6171,4.9634 5.684,10.1736 13.5625,3.3125c4.5092,-3.9269 7.624,9.9122 16.7187,6.9375c6.8658,-2.2456 10.3837,5.419 14.6875,7.625c4.8198,2.4707 10.6125,17.6554 11.3125,6.375c0.7323,-11.801 16.2805,-12.1777 21.5,-18.5c7.428,-8.9974 19.9958,-11.7057 21.7188,2.1563c1.1935,9.6034 7.713,12.511 18.2812,10.8437c10.2739,-1.6209 7.7048,19.8252 14.0938,27.4688c7.7402,9.2603 18.2616,-2.7062 29.4062,2.0312c8.2935,3.5254 0.1166,-12.5156 10.5313,-16.5937c12.2771,-4.8073 -3.6299,-18.7211 -0.0313,-30.4063c3.4537,-11.2145 7.6051,-23.0839 0.5313,-35.4062c-5.5823,-9.7238 3.5759,-21.385 7.5625,-31.3125c3.8131,-9.4954 4.6851,-26.211 16.25,-27.5313c12.0998,-1.3813 20.8684,-9.6405 28.9687,-17.3437c7.1558,-6.8052 9.3789,-16.2225 18.0625,-22.3125c7.2022,-5.051 -8.0973,-18.7079 3.5313,-25.8125c11.0207,-6.7333 -2.9256,-22.522 6.0937,-27.7813c10.0029,-5.8329 22.9571,-0.5219 33.1875,3.4063c7.4803,2.872 15.3614,-10.0372 22.7188,0.1562c7.532,10.4354 20.874,8.8771 32.4062,10.9688c11.0366,2.0018 22.5294,12.3316 35.0313,9.3125c9.2735,-2.2396 18.3407,-17.54 7.5,-24.25c-9.4135,-5.8266 -27.7392,-10.1375 -18.8438,-25.5938c5.5207,-9.5925 0.0705,-23.0337 6.7813,-32.3125c4.179,-5.7784 2.363,-11.8104 11.7187,-14.0312c8.9472,-2.1238 1.3227,-19.3988 4.6563,-27.75c3.8869,-9.7376 -8.9052,-25.7495 -3.4063,-33.625c6.3019,-9.0254 12.3976,-25.4935 6.3125,-33.1875c-5.9402,-7.511 -3.5209,-13.1262 -0.25,-20.2813c3.0764,-6.7299 -10.1777,-20.0988 -9.25,-32.25c0.8432,-11.0436 1.8971,-24.2971 11.5,-31.6875c7.8746,-6.0603 2.7908,-15.6939 2.1875,-23.4687c-0.8264,-10.6524 12.8077,-6.5389 20,-11.7813c6.4264,-4.6841 15.7253,8.3666 27.7188,3.5313c12.9641,-5.227 6.638,23.8337 24.0312,24.8437c13.1008,0.7608 25.239,-1.2914 38.25,-2c13.0259,-0.7095 18.3692,7.9558 19.25,20c0.8284,11.3278 9.4798,21.2465 1.1563,33.9063c-8.1763,12.4358 15.3553,10.674 22.5312,11c8.5275,0.3874 12.6154,-18.1363 26.3125,-20.4063c13.1109,-2.1729 25.9793,12.3819 34.6875,5.0313c5.9539,-5.0257 1.7397,-14.0999 9.8125,-20.5313c8.4709,-6.7487 -8.1556,-27.1188 2.8438,-28c8.2971,-0.6648 7.4033,16.9181 20.0625,19.3125c14.8231,2.8037 17.4866,-8.2525 31.0937,-5.3125c13.6071,2.94 12.7898,0.0785 21.9375,5.1563c9.1477,5.0778 13.0765,12.9292 21.25,18.5625c8.0911,5.5763 15.5988,12.8125 25.7188,15.25c13.3147,3.2067 27.3803,3.4153 40.625,7.1875c14.3899,4.0982 13.2661,18.3584 19.7187,28.4062c7.7744,12.1061 20.0699,11.7409 30.5938,17.0313c10.0644,5.0595 19.1803,12.0987 31.5312,12.625c10.0825,0.4295 22.2234,-4.299 28.9375,7.875c5.5856,10.1279 21.0763,5.1221 30.3125,15.6875c7.0724,8.0903 12.3261,25.0014 22.7813,24.0625c12.4865,-1.1215 25.1585,-4.6899 37.4375,1.2812c10.1735,4.9471 20.3934,-3.9521 24.5937,-15.4062c4.7944,-13.0742 22.8506,-8.8356 34.2813,-6.9375c9.7601,1.6204 17.3759,-10.7135 26.3125,-1.7188c9.7244,9.7876 -10.8756,6.1601 -4.3438,14.5938c3.5422,4.5735 11.4225,1.7951 14.625,8.2187c2.8521,5.7205 7.0312,-9.9287 9.4688,-9.75c3.8674,0.2834 8.8081,17.0715 16.4687,24.2188c7.881,7.3531 18.2052,1.2736 23.9375,6.9375c5.0255,4.9656 -5.448,12.9609 6.9063,16.0937c9.8987,2.51 3.4753,-7.0678 6.375,-8.75c4.379,-2.5403 4.3621,5.3891 13.4687,7.3125c12.3952,2.618 -20.5182,18.6825 -4.1875,22.4375c14.3536,3.3004 13.9473,15.065 26.1563,20.5313c11.0746,4.9583 21.3535,13.6615 32.5937,19.75c10.3753,5.6198 21.1066,9.4839 31.75,16c10.332,6.3252 23.2097,5.4968 34.4375,10.0312c11.2204,4.5314 22.9449,2.5624 34.875,2.2813c20.3468,-0.4795 40.8188,4.1478 60.8125,4.25c11.5392,0.0588 23.2582,0.1163 34.1875,-4.2188c10.3628,-4.1103 21.9701,5.9057 32.9688,9.1875c13.4098,4.0012 23.6517,-12.5459 31.9062,-2.0625c8.409,10.6794 18.3769,5.8843 26.25,-1.8437c7.5525,-7.4136 14.8856,-12.9115 17.1563,-25.1563c1.6392,-8.8403 20.4917,-10.6295 20.25,-23.5c-0.1855,-9.8719 4.2855,-19.2284 6.6875,-27.625c2.6472,-9.2543 18.7048,-8.5779 29.0312,-2.5937c7.8391,4.5428 26.1198,6.739 30.3438,-0.4688c5.1261,-8.7475 12.0238,-16.4473 20.375,-6.1562c5.4658,6.7357 11.1419,12.0021 23.25,14.2187c9.817,1.7971 18.4274,13.9472 31.6562,12.25c11.5311,-1.4794 28.5363,-7.2211 37.4688,3.625c7.1952,8.737 16.6818,19.8509 11.3125,31.7188c-3.6037,7.9651 -2.7626,31.9789 9.1875,22.625c8.7432,-6.844 22.7819,-7.5583 33.7812,-8c8.4552,-0.3395 10.9844,11.6797 15.5938,15.875c6.4945,5.9112 12.2291,16.4313 25.4062,11.9375c10.5188,-3.5874 24.7072,9.5546 29.875,2.8125c6.785,-8.8522 14.1123,-3.4279 20.8125,-1.875c9.398,2.1783 16.3619,-8.6184 23.5,-11.4375c7.3241,-2.8928 17.7595,3.3989 24.2813,11.9062c7.1539,9.3319 9.0751,23.9009 4.2812,34.0625c-4.8444,10.2687 11.6287,7.5591 4.2813,19c-5.7405,8.9386 4.5818,21.5543 4.9062,30.7813c0.3209,9.1274 -6.2367,22.0245 8.5938,23.875c12.751,1.5911 16.9978,-5.2097 21.625,-13.0313c3.3403,-5.6462 2.9899,-14.9727 6.4375,-22.5625c4.7201,-10.3913 -4.4884,-26.6973 6.0312,-35.7187c9.9787,-8.5576 15.6332,-19.0084 15.9688,-33.5938c0.2489,-10.8284 11.639,-20.4075 13.625,-32.5937c1.7464,-10.7177 14.3232,-17.7813 18.0625,-27.8438c3.4984,-9.4143 7.7601,-15.5149 14.7812,-21.4687c6.4844,-5.4987 11.2854,-11.1132 18.4375,-15.4688c5.8103,-3.5385 3.5195,-13.3188 10.125,-18.9375c7.1058,-6.0443 8.1626,-18.8925 6.9688,-30.3125c-0.944,-9.0292 9.8483,-16.9214 16.2812,-19.5312c7.6578,-3.1067 18.5048,-3.5835 21.6563,-13.7188c2.3982,-7.7129 11.2262,-9.6198 15.6562,-18.1875c4.3269,-8.3681 15.8105,-15.7644 27.125,-6.6875c8.2616,6.6278 24.4879,-1.3819 32,8.0625c6.7044,8.4292 15.2598,5.207 22.5,10.9375c6.736,5.3315 14.479,21.4208 26.4688,11.5625c7.367,-6.0575 3.7854,9.4213 11.0312,12.9375c9.4192,4.571 18.456,12.1538 24.3438,20c3.3462,4.4597 14.1468,-4.5047 23,0.6563c7.653,4.4613 10.2101,-11.0921 20.6562,-12.1563c13.1777,-1.3425 12.4645,-21.8769 24.5625,-26.7812c10.5287,-4.2683 22.0057,5.3912 30.75,12.0937c8.6581,6.6363 14.66,14.536 23.4375,20.3438c7.9651,5.2701 22.7069,2.7294 27.25,-2.1563c7.5232,-8.0906 18.4123,-7.2083 28.7813,-9.7187c10.7564,-2.6043 0.8257,-18.1904 16.2187,-18.7813c8.3369,-0.3201 10.8961,-12.65 19.875,-16.7812c8.7461,-4.024 20.2217,0.3681 28.8438,-6.6563c9.2532,-7.5382 27.3547,0.4932 32.7812,-15.0625c4.4242,-12.6823 17.0104,-19.3881 22.4375,-31.4687c4.8646,-10.8286 20.2907,-15.0819 24.5625,-24.5313c5.6279,-12.4492 12.8123,-17.006 27.875,-15.3437c11.7887,1.301 23.8275,-4.0262 34.625,1.8437c10.9053,5.9286 17.7623,-1.647 23,-7c6.2594,-6.3974 -1.2417,-23.6828 6.375,-33.875c7.1242,-9.5335 -2.4853,-24.9954 5.625,-34.625c9.4877,-11.2651 -2.4641,-27.0536 7,-37.5c6.4306,-7.098 17.2963,-11.3758 27.25,-11.5312c13.1277,-0.205 26.4221,-3.6923 38.25,-0.9688c11.7931,2.7155 22.8804,-0.3306 32.375,-6.75c9.0833,-6.1412 19.1693,-12.3544 26.125,-21.25c3.9306,-5.0268 7.3106,-8.4614 13.125,-13.0937c6.3052,-5.0233 2.0474,-21.5749 10.3125,-31c9.3646,-10.679 0.3903,-23.9339 -1.9375,-35.4063c-1.944,-9.5807 4.3596,-15.9531 -1.4375,-25.75c-5.0916,-8.6051 2.8668,-19.9323 13.4375,-25.75c12.5114,-6.8859 2.3804,-24.0872 2,-35.5c-0.301,-9.0286 8.8664,-11.7483 10.4063,-21.5312c1.8518,-11.7629 8.7837,-23.2385 -1.6563,-34.1563c-8.8191,-9.2229 0.7375,-21.6566 10.5313,-28.875c9.9037,-7.2994 22.0362,-18.0984 18.2187,-34.9375c-3.4734,-15.3209 18.6524,-7.7307 27.9375,-15.875c8.036,-7.0488 23.2732,6.5863 32.0625,-0.8125c9.0876,-7.6496 19.6559,-8.5157 27.9375,-17.0937c5.6382,-5.8399 13.1155,-5.0364 19.0313,-10.6875c8.2623,-7.8927 23.1142,-6.013 33.875,-11.375c12.0043,-5.9818 12.1863,-22.7346 23.1562,-29.1563c4.5195,-2.6457 -0.0657,-10.759 7.5,-14c11.9525,-5.1202 -5.5419,-23.5138 -4,-36c1.8261,-14.7869 23.3915,3.0715 31,-4.8437c5.7711,-6.0039 5.8947,-12.7843 16,-15.6875c10.0257,-2.8803 4.675,-19.3106 14.8125,-25.2188c9.886,-5.7614 10.5068,-22.7433 19.625,-32.0937c7.2516,-7.4366 23.5102,-11.9537 19.7813,-22.125c-1.9833,-5.4096 -10.233,-11.1 -10.3438,-18.0313c-0.0575,-3.5786 1.2134,-6.8715 4.125,-9.5c9.7399,-8.7932 21.6283,-16.825 34.75,-18.875c7.2182,-1.1277 11.859,-3.1955 13.8125,6.4063c2.8757,14.1337 22.1578,3.6814 31.7188,1.125c9.7613,-2.6101 23.8183,-15.6407 29.2187,-9.1563c8.3723,10.0529 23.484,0.6765 30.8125,9.7188c6.1331,7.5672 19.5923,10.5392 28.125,4.2812c10.5371,-7.7282 17.5549,-17.6614 29.375,-24.3125c12.0148,-6.7606 25.7219,-1.3724 37.1875,-6.6875c7.4577,-3.4572 -7.4335,-2.9629 -6.6562,-11.5625c1.0534,-11.6567 16.4439,-16.3675 13,-29.875c-3.0413,-11.9286 -10.9987,-17.2436 -15.5938,-26.1875c-4.856,-9.4516 1.0631,-24.3897 -5.4062,-28.9375c-9.8567,-6.9289 -7.463,-21.251 -11.6875,-31.2187c-5.0113,-11.8236 -9.8046,-23.8881 -12.0938,-36.8125c-1.7369,-9.8079 7.4399,-24.5619 -7.1875,-28.2813c-10.1691,-2.5857 -24.0304,-11.962 -32.2812,-1.2187c-9.2612,12.0587 -22.0801,0.8508 -29.5938,-4.4063c-8.4528,-5.9142 -6.4766,-28.736 -23.2187,-22.4687c-12.2741,4.5947 -26.043,-2.9493 -38.0938,-5.3125c-10.119,-1.9844 -13.4306,-15.5966 -10.1875,-25.7188c3.6319,-11.3359 -4.2428,-16.8769 -11.8125,-23.9687c-7.767,-7.2769 -4.5674,-21.2358 -10.75,-30.6875c-6.3355,-9.6857 -2.4636,-20.4953 -12.4375,-29.3438c-7.4704,-6.6274 -19.9905,-22.7669 -15.1562,-33.4062c3.6079,-7.9402 18.3802,-11.6011 12.6562,-21.0313c-2.5911,-4.269 20.5932,-12.4298 7,-15.3125c-9.783,-2.0747 -22.659,-4.7343 -22,-17.75c0.5712,-11.2818 5.3178,-21.8929 3.5,-33.25c-1.1411,-7.129 -1.9918,-19.3719 -12.8437,-12.1875c-6.3776,4.2222 -13.7866,-13.5725 -18.5,-2.5c-3.6269,8.5201 11.5373,19.4001 -2.0938,24.75c-11.9444,4.6882 -23.4654,-1.8928 -34.7812,0.5c-5.1883,1.0971 -5.6149,-7.1853 -10.7813,-10.8125c-8.0976,-5.685 -13.856,-10.4871 -24.7187,-12.2187c-11.7446,-1.8722 -9.4024,-24.0921 -24.75,-16.5313c-10.8525,5.3463 -26.0438,9.2934 -35.5313,0.25c-6.3633,-6.0654 -30.4873,-10.9175 -21.625,1.6563c2.5429,3.6079 15.9412,2.4007 8.2813,6.9687c-8.4635,5.0471 10.0199,9.685 -4.8438,10.9688c-13.0928,1.1309 -28.8869,6.1363 -39.8125,-4.0938c-11.2066,-10.4933 0.6647,-27.1035 -5.9687,-38.9375c-6.3204,-11.2752 -25.8933,-7.9297 -36.7188,-7.9062c-14.0166,0.0304 -18.7613,-2.6002 -14.3125,-14.6563c6.4508,-17.4812 -17.0394,-16.2079 -28,-20.5c-9.8629,-3.8623 -7.6097,11.1048 -9.1875,17.4688c-2.8122,11.3415 -14.5931,-5.5318 -23.8125,-6.9688c-11.0033,-1.7151 -20.7787,-2.2334 -27.0937,-13.0937c-5.5033,-9.4644 4.5079,-21.3727 -11.2813,-29.0625c-5.9902,-2.9175 -0.2917,-14.6774 -10.25,-15.7813c-11.6526,-1.2918 -9.0411,-15.7444 -20.9062,-20.0625c-13.3797,-4.8692 -29.2097,-1.3574 -32.7813,11.6563c-2.527,9.2075 -2.6456,37.856 11.2813,26.5625c8.9495,-7.2574 18.0264,-8.028 17.9375,4.5625c-0.0633,8.9327 6.277,19.4976 -7.6563,21.2187c-10.9221,1.3491 -21.1374,-8.4025 -27.25,-5.8125c-7.3049,3.0951 -12.0629,10.3333 -22.875,11.1563c-10.4733,0.7971 -19.4541,13.3211 -24.9062,23.3125c-7.0839,12.9813 -20.2909,10.2803 -32.375,11.9687c-10.0189,1.3999 -20.869,11.5113 -26.0313,-2.8125c-3.5481,-9.8448 -27.4809,-10.8931 -22.8125,-20.8125c7.4058,-15.7355 -12.5941,-14.8736 -20.9062,-18c-8.686,-3.2669 -20.053,-7.9091 -20.0313,-19.4062c0.0141,-7.4966 -0.059,-19.7545 -10.5625,-25.5938c-5.3073,-2.9505 -3.2002,-8.5033 -2.7187,-15.5937c0.374,-5.5099 -8.1335,-12.7483 -17.2813,-16.9063c-8.4957,-3.8616 -4.3461,-21.0443 -14.5,-27c-8.9024,-5.2217 -15.7927,-17.3383 -22.5,-12c-8.3916,6.6788 -10.652,17.1736 -24.5625,11c-12.268,-5.4447 -7.0591,-23.959 -20.375,-28.125c-11.0576,-3.4595 -17.6298,-10.7485 -24.0312,-20.3437c-5.0149,-7.5169 -10.5223,-14.551 -0.5,-19.9063c8.7648,-4.6835 20.131,-5.7744 29.875,-10.3437c11.4559,-5.3723 24.2787,-8.8861 36.4062,-9.7813c15.9991,-1.1809 12.9159,-15.274 18.625,-24.5c7.5706,-12.2343 26.613,8.1922 33.0625,-7c4.455,-10.4942 0.1216,-23.8293 5.5,-33.5c3.9461,-7.0953 -17.6624,-11.8656 -26.3125,-17.53125c-12.3879,-8.11385 -3.6943,-21.61532 -1.3125,-31.75c2.4631,-10.4818 13.5127,-17.74864 14.0938,-28.09375c0.4619,-8.22331 -16.0417,-1.38655 -20.25,-12.5c-4.1298,-10.9057 -19.2188,-22.39954 -29.5,-14.84375c-10.04,7.37844 6.7422,27.2917 -9.0313,34.5625c-11.1515,5.14029 -19.5542,16.23696 -25.6875,27.40625c-5.7171,10.41164 -24.3961,17.08266 -31.1562,4.875c-6.0273,-10.88417 -21.7882,-5.87314 -29.625,0.8125c-9.6127,8.20048 -20.5806,-3.2181 -31.2188,-3.9375c-11.3689,-0.76881 -22.2931,1.55028 -32.5937,7.71875c-9.5837,5.73914 -14.935,14.54764 -23.9063,20.28125c-15.8624,10.1378 -9.763,-13.71541 -15.8125,-21.5625c-4.771,-6.18898 -13.191,-3.3098 -19.9687,-9.4375c-6.7545,-6.10651 -27.1362,-7.50513 -27.2188,9c-0.0789,15.75626 -12.5121,3.42608 -16,-5.53125c-4.6635,-11.97645 6.0454,-18.63508 5.25,-29.65625c-0.6236,-8.64073 4.1797,-26.09681 -4.25,-28.8125c-13.9729,-4.50149 -23.4859,9.4831 -37.6875,10.25c-15.3063,0.82656 -26.2156,-8.7669 -37.25,-16.09375c-11.2165,-7.4479 -19.9877,-18.64174 -30.0625,-27.65625c-10.9982,-9.84079 -0.7056,-24.58902 -6.125,-32.875c-7.7435,-11.83936 -25.2317,2.77639 -38.1875,4.03125c-13.7179,1.32865 -27.7371,-5.70941 -34.2187,-16.59375c-7.5327,-12.64923 -25.2547,-6.61547 -37.3125,-7.59375c-14.0415,-1.1392 -19.4406,-18.37631 -30.6563,-18.90625c-9.7538,-0.46088 -17.0557,-5.23614 -27.1562,2.34375c-8.0471,6.03885 -15.5006,-12.2686 -24.5938,-14.75c-12.8126,-3.49641 -23.3399,-16.23659 -34.9062,-17.65625c-10.8017,-1.3258 -15.5238,13.492 -20.3438,22.5c-4.6204,8.63493 -15.3125,18.51561 -12.5,27.5c2.9988,9.57964 17.4238,11.93187 24.4375,19.84375c4.7901,5.40347 15.1325,3.13674 17.5625,13.28125c2.8639,11.95552 -3.2085,27.41842 7.0938,35.4375c10.363,8.06639 9.7584,19.77565 11.4062,30.9375c1.8817,12.7463 17.0197,14.48476 27.2188,17.3125c12.5792,3.48772 25.0445,8.26522 30.7812,22.5c4.1656,10.3359 9.4766,24.0344 1.5,31.1875c-8.6943,7.7966 -9.4461,20.3601 1.9688,25.875c8.4576,4.0863 8.6772,18.631 1.75,25.1563c-0.7704,9.783 -17.1849,7.3773 -17.0938,-4.5938c0.0553,-7.2669 -9.0021,-11.0421 -10.125,-20.9375c-1.3897,-12.247 -15.451,2.7949 -13.6875,11.5625c3.0524,15.1752 -16.5133,14.5665 -25.9375,9.5c-12.6791,-6.8164 -22.0028,4.2509 -30.75,10.8438c-8.1556,6.1468 4.6114,19.0977 -9.4062,23.125c-13.2229,3.799 -14.8116,-19.2428 -25.7188,-9.5313c-8.2482,7.3439 -17.2382,13.3901 -24.9062,21.4063c-8.2086,8.581 -6.8637,21.5328 -11.0938,32.0937c-3.7877,9.4563 -6.2327,20.3276 -14.9375,26.9063c-9.5703,7.2326 -22.3709,10.5707 -27.8125,22.3437c-3.7285,8.0669 -5.2763,16.735 -15.4375,20.4063c-12.4255,4.4892 -27.2064,5.4753 -38.8125,-0.1563c-12.0302,-5.8375 -26.0741,-4.959 -35.8437,-16.25c-7.131,-8.2414 -10.4936,-20.0093 -20.3438,-24.5c-6.015,-2.7423 -9.409,-4.0347 -7.4375,-12.0625c2.3133,-9.4197 -20.6458,-12.1729 -20,-24c0.3243,-5.9361 1.1522,-9.231 -0.375,-15.1875c-1.8583,-7.2484 -1.3724,-20.9857 3.3125,-29.2812c2.2233,-3.9368 -1.7714,-10.7943 -4.375,-14.9063c-4.2423,-6.7 -7.4223,-19.2041 -20.1875,-20.1562c-11.2753,-0.841 -12.8022,-18.0835 -19.0937,-23.75c-6.6185,-5.961 -15.9944,-14.13697 -22.1563,-21.3438c-8.5023,-9.94408 -11.8389,-22.02933 -21.8125,-30.875c-8.359,-7.41364 -10.8393,-25.89581 -22.1562,-25.375c-9.0525,0.4166 -19.4203,12.88111 -26.5313,0.1875c-5.4533,-9.73466 -13.6341,-18.49696 -19.0937,-26.78125c-4.5306,-6.8745 5.4157,-22.70769 0.9375,-31.96875c-5.1437,-10.63706 -21.4825,0.2335 -30.3438,-2.96875c-7.9777,-2.88296 -15.7339,-5.84972 -19.5,3.71875c-2.8429,7.22289 -14.9964,12.91597 -19,1c-3.4863,-10.37649 -8.6587,-20.46683 -15.5,-29.53125c-5.5091,-7.29938 -12.2025,-19.17418 -24,-11.46875c-13.1035,8.55841 -4.8502,-18.27579 -15,-25c-8.2161,-5.44311 -0.8558,-29.60997 8.6563,-22.125c5.3443,4.20545 12.2833,26.39247 18.5312,14.71875c6.2993,-11.76974 -17.95,-22.71923 -9.1875,-31.59375c4.9849,-5.04863 19.7939,2.71231 18.6875,-10.21875c-1.3766,-16.08859 20.0308,-7.93382 29.25,-9.84375c7.2155,-1.49476 16.837,-13.99211 14.5625,-19.9375c-4.6875,-12.25272 7.9406,-14.6419 13.5,-4.5c4.9116,8.95997 24.1273,3.73792 27,-9.5c2.3869,-10.99929 18.3935,-12.17573 24,-20.5c5.61,-8.32953 -9.2016,-23.02483 6.4688,-27.65625c14.061,-4.15575 -7.4856,-22.30202 -1.4375,-26.875c7.0294,-5.31501 18.5112,-6.50766 27.2187,-11.34375c8.4567,-4.69672 -4.5634,-15.80501 -7.75,-21.625c-5.5085,-10.06061 -13.99,-18.91554 -24.6562,-23.59375c-11.3359,-4.97193 -17.3143,-16.2415 -22.5,-27.03125c-3.89,-8.09394 -15.8909,-8.24326 -19.6875,-19.71875c-4.2661,-12.89443 -22.8932,-5.59369 -33.625,-2.65625c-10.898,2.98289 -23.3667,-3.52449 -33.4063,-8.25c-12.2363,-5.75949 -22.4268,2.71042 -26.3437,13.59375c-3.6302,10.08662 -1.927,24.43862 -14.7813,29.53125c-11.9572,4.73717 -16.8545,-0.16036 -20.2812,-9.8125c-4.3361,-12.21365 -18.384,-14.15371 -28.75,-18.84375c-10.7042,-4.84304 -24.23,-5.95859 -34.9688,0.78125c-9.5506,5.99407 -15.6643,15.93959 -22,25c-6.1254,8.75971 3.3956,28.361 -12.625,27.4375c-9.9868,-0.5757 -9.9897,22.10239 -22.875,12.5625c-7.0154,-5.19394 -28.8953,-11.63826 -20.6562,-19.0625c5.8611,-5.28135 20.3749,-6.64971 23.0312,-14.71875c1.6545,-5.02579 -8.0076,-5.38653 -6.375,-13.96875c2.5095,-13.1917 -7.4594,-25.22161 -11.5312,-37.71875c-3.299,-10.12522 -8.7228,-15.49185 -19.625,-18.4375c-12.6868,-3.42783 -22.6302,2.73995 -32.9375,7.8125c-9.3474,4.60019 -19.4927,5.87027 -27.9063,13.40625c-6.9433,6.21911 -27.5807,2.67029 -22.5,-12.0625c3.8622,-11.19951 -5.4743,-21.82368 -11.3125,-31.1875c-7.0253,-11.26768 -11.5299,-22.93862 -12.8437,-36.125c-1.0934,-10.97303 -12.2729,-26.1997 -24.4688,-17.46875c-6.2623,4.48325 -7.0204,16.63851 -17.8125,13.90625c-13.8076,-3.49571 -21.7079,8.97375 -35.5937,6.625c-11.1923,-1.89315 -26.95,3.82861 -32.1563,-10.59375c-4.4681,-12.37751 -19.1591,-13.19822 -30.3125,-14.90625c-13.7458,-2.10501 -23.2362,-13.63012 -35.1875,-19.4375c-9.0985,-4.42116 -22.1315,2.05854 -30.75,-1.6875c-11.3102,-4.91603 -25.417,5.61673 -32.0937,-3.3125c-8.1725,-10.92939 -20.5133,-7.78408 -30.3438,-17.3125c-7.7835,-7.54431 -19.2511,-14.04882 -29.7187,-16.28125c-14.2983,-3.04935 -16.965,16.55315 -22.9063,26.03125c-5.7241,9.13165 -24.9629,18.79053 -25.5,3.5c-0.3271,-9.31268 -10.0926,-17.7948 -5.8125,-22.3125c6.8187,-7.19745 6.7681,-15.44314 6.9375,-21.90625c0.186,-7.09264 -3.8537,-18.23824 -12.125,-26.28125c-8.7124,-8.47195 -16.3843,-16.75822 -28.0625,-18.15625c-12.2927,-1.4716 -18.4341,-12.00376 -23.9375,-21.34375c-6.2342,-10.58019 -13.1779,-20.66858 -11.9375,-34.03125c1.0645,-11.4675 -12.6809,-25.80833 -5.5625,-34.46875c6.4598,-7.8592 23.9871,-15.86628 17.625,-26.75c-3.9576,-6.77042 -13.7434,-8.85179 -11.125,-19.25c3.7382,-14.8456 -21.2497,-4.30528 -25,-14.5c-2.6825,-7.29185 3.0945,-20.94361 -10,-15c-8.881,4.03112 -15.9896,9.29635 -22.5,17.5c-8.1124,10.22226 -20.9502,-10.60139 -17.5,-22.25c3.3481,-11.3041 -2.0465,-22.34865 -16.0625,-15.125c-10.8539,5.59392 -9.943,22.86249 -19.8437,24.375c-7.6778,1.17293 -22.9295,10.03971 -23.0938,-5.71875c-0.0626,-6.01041 11.0482,-11.01326 0.625,-14.5625c-12.0029,-4.08721 -25.2926,-3.94053 -38.125,-2.71875c-10.8442,1.03248 -16.8711,-20.66412 -23.5,-11c-6.8249,9.94981 -15.4969,12.79322 -25,18c-8.6467,4.73757 -14.0136,17.87864 -5.125,27.625c6.5302,7.16045 12.3988,1.30831 18.3125,-0.71875c6.7768,-2.32297 10.0861,13.83479 13.1875,20.5625c2.4446,5.30278 -12.1421,6.14659 -5.875,15.03125c7.8147,11.0786 -3.2471,23.17789 -10,31c-8.9726,10.39329 0.4275,16.57878 3,25c2.9874,9.77947 -13.9741,13.68329 -6.5312,25.5c4.2375,6.72759 11.1042,25.88542 -3.4688,23c-12.9363,-2.56135 -23.6634,9.27861 -37.0937,2.0625c-8.4409,-4.53527 -21.6115,-15.01996 -29.125,-8.5c-9.0083,7.81703 -19.0204,-5.80289 -26.4375,-5.53125c-7.85,0.28748 -16.498,6.83901 -25.8438,1.96875c-10.3908,-5.41487 -6.9235,5.22948 -8.5,11.9375c-2.3779,10.1184 -14.0055,18.85822 -13.375,31.8125c0.6158,12.6504 -11.9673,24.31235 -23.8125,20.875c-11.7643,-3.41384 -22.5863,-11.01269 -35.3125,-3.125c-13.6817,8.47989 -1.2169,-23.92645 -18.5,-21c-10.0897,1.70844 -18.2068,0.1883 -26,-7.5c-7.559,-7.45729 -18.5016,-4.6319 -29,-9.5c-13.9903,-6.48727 -5.763,-19.42827 -3.5937,-28.90625c2.5447,-11.11832 10.2017,-20.49067 19.25,-28.375c7.6669,-6.6807 9.3273,-30.36965 0.8437,-36.125c-7.9892,-5.41993 -20.7471,6.78899 -30.875,10.53125c-9.4227,3.48168 -28.9923,15.51134 -35.1562,3.0625c-6.5213,-13.17033 12.0801,-17.39452 16.625,-27.65625c5.1553,-11.63999 5.8314,-23.47126 7.8437,-36.125c2.4687,-15.52352 -15.0602,-13.99314 -18.625,-24.5c-4.642,-13.68165 -17.3917,-10.77502 -27.6562,-11.625c-6.0217,-0.49866 -0.9467,-18.90682 -12.1563,-18.28125c-11.3146,0.63143 -20.4197,-9.05953 -10.5,-18.5c10.2455,-9.75059 -11.8433,-22.17829 -11.875,-6.5625c-0.0152,7.4949 4.1835,28.09528 -7.8437,18.625c-8.1085,-6.38462 -21.4521,-19.29251 -28.7813,-8.875c-7.5974,10.79883 -22.5175,18.24858 -34.2812,12.0625c-11.0269,-5.79854 -10.0707,-20.77229 -20.0313,-27.40625c-10.7058,-7.13031 -19.1529,16.27327 -26.625,3.9375c-4.3043,-7.10593 -13.8363,-16.69508 -21.375,-16.8125z" />
	<circle fill="black" stroke="black" stroke-width="2" r="15" cy="155" cx="1758" />
</svg>