<svg viewBox="1.049 1.88 42.75 90.09" xmlns="http://www.w3.org/2000/svg">
  <path d="M17.3,1.88A16.56,16.56,0,0,1,28.75,7.4c1.09,1.15,1.15,2.25-.23,3.17-1,.74-2.13,1.38-3.17,2.07a4.31,4.31,0,0,1-5.12.11A5.85,5.85,0,0,0,12,15.63c-.69,1.72-1.67,2.07-3.22,1.32A13.16,13.16,0,0,0,5.91,15.8c-2-.46-2.19-1.78-1.84-3.45C5.16,7.11,11.55,1.94,17.3,1.88Z"></path>
  <path d="M28.17,92a56.6,56.6,0,0,1-5.58-2.07c-1.78-.86-1.84-2.13-.4-3.45,1.21-1.15,2.42-2.3,3.68-3.28a3.65,3.65,0,0,1,2.07-.57,12.29,12.29,0,0,0,7-2,2.77,2.77,0,0,1,1.78-.29c1.79.18,3.51.46,5.3.75s2.24,1,1.32,2.48a22.13,22.13,0,0,1-4.14,5.06C36.34,90.82,32.89,91.69,28.17,92Z"></path>
  <path d="M13,45.08a8.43,8.43,0,0,1-1.49,1.62,29.28,29.28,0,0,1-3.63,1.61c-3,1.09-5.58-1.27-5-4.55a2,2,0,0,1,.4-.8c1.15-1.27,6.33-2.42,7.54-1.44C11.83,42.32,12.29,43.76,13,45.08Z"></path>
  <path d="M33.81,36.11h.4c3.69.06,5.18,2.76,3.23,6a2.19,2.19,0,0,1-1.67.86,50,50,0,0,1-5.24-.69,1.83,1.83,0,0,1-1.78-2.18c.11-1.38-.17-2.94,1.61-3.45a24,24,0,0,1,3.51-.64C33.75,36,33.75,36.05,33.81,36.11Z"></path>
  <path d="M33,34.73c-3.4.06-3.63-.17-3.91-2.88-.18-1.84.51-2.76,2.35-2.87.92-.06,1.85-.41,2.82-.46s2.77-.12,2.88.28a16.22,16.22,0,0,1,.63,4.78c0,.29-.86.69-1.32.8C35.25,34.56,34.1,34.61,33,34.73Z"></path>
  <path d="M1.59,36.92c-.11-2.31.06-2.48,2.36-2.65,1.27-.06,2.53-.12,3.8-.23,2-.23,2.42,1.09,2.65,2.65s0,2.76-1.9,3a19.43,19.43,0,0,0-2.59.51C2.23,40.94,1.77,40.6,1.59,36.92Z"></path>
  <path d="M34.56,51.87c-2.59-1.2-4.78-2.13-6.85-3.33-.34-.23-.29-1.79.06-2.48s1.38-1.72,1.9-1.61a24.16,24.16,0,0,1,6.15,1.73c1.73.8.81,2.47.35,3.68C36,50.55,35.25,51.13,34.56,51.87Z"></path>
  <path d="M8.38,57.05a13.19,13.19,0,0,1-2-3,2.81,2.81,0,0,1,.8-2.53,17.51,17.51,0,0,1,3.91-2.24c2-1,2.65-.75,3.86,1.21.75,1.2.63,2.07-.58,2.87S12,55.15,10.74,56A24.5,24.5,0,0,1,8.38,57.05Z"></path>
  <path d="M13.16,70.4c.34-.4.69-1.15,1.32-1.5a12.18,12.18,0,0,1,2.88-1c3.45-1,3.45-1,4.37,2.41a2.07,2.07,0,0,1-1.5,2.94c-1.09.34-2.13.8-3.22,1.15-2.18.75-2.82.4-3.39-1.84A16.52,16.52,0,0,1,13.16,70.4Z"></path>
  <path d="M36.92,61.83c2.07-.06,3,1.15,3.51,3.68.28,1.49-.75,1.9-1.79,2.18a16.38,16.38,0,0,1-4,1,3.25,3.25,0,0,1-2.25-1.09,4.05,4.05,0,0,1-.86-2.3c-.06-.58.23-1.5.63-1.67C33.87,62.86,35.71,62.29,36.92,61.83Z"></path>
  <path d="M6.08,31.91H4.58C1.25,31.74.15,29.9,1.82,27a2.49,2.49,0,0,1,2-.92,21.19,21.19,0,0,1,3.74.58c2.3.51,3.22,2.24,2.12,4.37a2.13,2.13,0,0,1-1.32.86,10.32,10.32,0,0,1-2.3.06Z"></path>
  <path d="M29.44,27.25a5.88,5.88,0,0,1-1.32-1.61c-.47-1.09-1.16-2.42.28-3.22a22,22,0,0,1,5.24-2.19c1.9-.46,2.07,1.38,2.64,2.59s.35,2.3-1,2.82C33.52,26.21,31.62,26.62,29.44,27.25Z"></path>
  <path d="M8.32,24.14a21.56,21.56,0,0,1-3.1-.57c-.87-.29-2.36-.87-2.36-1.33a13.62,13.62,0,0,1,.8-4.2c.06-.23.92-.46,1.33-.4,1.78.46,3.51,1,5.23,1.67,1.38.46,1.27,1.55.92,2.7S10.45,24.37,8.32,24.14Z"></path>
  <path d="M33.47,16.2c-.12.35-.18.81-.35.87a42.37,42.37,0,0,1-6.27,2.53c-.52.11-1.67-1.56-2.07-2.59-.23-.52.4-1.67.92-2.13a18.51,18.51,0,0,1,3.39-2.07c2.13-1.09,2.59-.92,3.57,1.26C33,14.77,33.18,15.51,33.47,16.2Z"></path>
  <path d="M15.4,77.3a7.4,7.4,0,0,1,1.84-1.49c1.67-.64,3.28-2.36,5.29-1.1,1,.69,1.44,2,.06,2.82a29.76,29.76,0,0,1-4.89,2.53C16.38,80.58,15.34,79.55,15.4,77.3Z"></path>
  <path d="M36.8,73.74c-1.38-.06-2.64.17-2.93-1.44s.8-2.25,2.18-2.53c1.16-.23,2.36-.52,3.51-.69A2,2,0,0,1,42,71c.23,1.44-.69,1.9-1.84,2.13S37.78,73.56,36.8,73.74Z"></path>
  <path d="M43.36,77.48c.06,1-.17,2-1.49,1.84-1.79-.18-3.51-.41-5.24-.75a1.85,1.85,0,0,1-1.21-1.33,1.94,1.94,0,0,1,1.21-1.38,28.51,28.51,0,0,1,4.89-.69C43.07,75,43.19,76.27,43.36,77.48Z"></path>
  <path d="M19.26,86.34a9.29,9.29,0,0,1-1.33-2c-.17-.57,0-1.72.4-1.95a40.5,40.5,0,0,1,4.89-2.54,1.64,1.64,0,0,1,1.44.52,1.51,1.51,0,0,1,.06,1.56c-1.5,1.49-3,2.81-4.66,4.19C20,86.22,19.77,86.16,19.26,86.34Z"></path>
  <path d="M13.79,44.91c-1.67-3.8-1.15-4.54,4-6.33,2,2.59,1.78,3.63-1.09,5C15.75,44.05,14.83,44.45,13.79,44.91Z"></path>
  <path d="M22,38.12c5.06.12,6.21,1.21,5.29,5.12-1-.17-2.07-.4-3.11-.63C21.15,42,20.75,41.11,22,38.12Z"></path>
  <path d="M16.9,33.06c1.15,3,.92,3.39-2.07,4.26-.81.23-1.56.46-2.36.63C11,34.5,12.35,33.64,16.9,33.06Z"></path>
  <path d="M27.19,36.22c-5.35.35-5.92,0-5.58-3.5C25.53,31.51,27.42,32.66,27.19,36.22Z"></path>
  <path d="M16.32,21.38c1.15,2.94.92,3.45-2.07,4.26-.81.23-1.55.4-2.36.63C10.51,22.93,11.6,22,16.32,21.38Z"></path>
  <path d="M25.18,24.6c-5.29.46-5.92.12-5.58-3.45C23.57,20.06,25.3,21.09,25.18,24.6Z"></path>
  <path d="M15.57,27.59c1.15,2.36.92,3.05-1.38,3.69-.8.23-1.55.4-2.36.63C10.68,29,11.26,28.34,15.57,27.59Z"></path>
  <path d="M21.61,27.13c4-.74,5-.05,4.89,2.94C22.71,31,21.38,30.18,21.61,27.13Z"></path>
  <path d="M18.28,15.86c3.62-.52,4.48,0,4.48,2.76C19.14,19.66,17.76,18.74,18.28,15.86Z"></path>
  <path d="M16.61,16c.86,3,.52,3.34-3.68,4C11.89,17.35,12.47,16.72,16.61,16Z"></path>
  <path d="M26.79,81.21c2.25-3,3.74-3.56,6.91-2.12C31.8,81,29.55,81.44,26.79,81.21Z"></path>
  <path d="M30.93,67.75c-3.51.29-3.79.12-4-2.41C30.19,64.82,30.59,65.05,30.93,67.75Z"></path>
  <path d="M23.8,74c-1.15-2.42-1.09-2.54,2.07-4.09C27.19,72,27.08,72.3,23.8,74Z"></path>
  <path d="M33.52,76.61c-3.62.23-3.85.12-3.91-2.41C32.66,73.74,33.18,74,33.52,76.61Z"></path>
  <path d="M27.31,74.48c1,2.59,1,2.59-2.13,4.2C23.8,76.44,24,76.15,27.31,74.48Z"></path>
  <path d="M22.82,69.71c-1-2.53-.86-2.71,2.25-4.14C26.27,67.92,26.16,68.1,22.82,69.71Z"></path>
  <path d="M28.35,69.42c3.27-.34,3.56-.17,3.85,2.13C29.78,72.7,28.35,72,28.35,69.42Z"></path>
</svg>